<svg width="32" height="32" xmlns="http://www.w3.org/2000/svg" xml:space="preserve" version="1.1">

 <g>
  <title>Layer 1</title>
  <polyline id="svg_1" stroke-miterlimit="10" stroke-linejoin="round" stroke-linecap="round" stroke-width="2" stroke="#ff8d42" fill="none" points="13,8 16,5 19,8 " class="st0"/>
  <polyline id="svg_2" stroke-miterlimit="10" stroke-linejoin="round" stroke-linecap="round" stroke-width="2" stroke="#ff8d42" fill="none" points="19,24 16,27 13,24 " class="st0"/>
  <polyline id="svg_3" stroke-miterlimit="10" stroke-linejoin="round" stroke-linecap="round" stroke-width="2" stroke="#ff8d42" fill="none" points="8,19 5,16 8,13 " class="st0"/>
  <polyline id="svg_4" stroke-miterlimit="10" stroke-linejoin="round" stroke-linecap="round" stroke-width="2" stroke="#ff8d42" fill="none" points="24,13 27,16 24,19 " class="st0"/>
  <path id="svg_5" stroke-miterlimit="10" stroke-linejoin="round" stroke-linecap="round" stroke-width="2" stroke="#ff8d42" fill="none" d="m20.80179,30l-9.7,0c-5,0 -9.1,-4.1 -9.1,-9.1l0,-9.7c-0.1,-5.1 4,-9.2 9,-9.2l9.7,0c5,0 9.1,4.1 9.1,9.1l0,9.7c0.1,5.1 -4,9.2 -9,9.2z" class="st0"/>
 </g>
</svg>