<svg width="40" height="40" xmlns="http://www.w3.org/2000/svg">
 <g>
  <title>Layer 1</title>
  <rect stroke="null" y="0" id="svg_1" height="40" width="40" fill="none" x="0"/>
  <g stroke="null" id="svg_2">
   <path stroke="null" id="svg_3" d="m2.00826,12.65738l8.91713,0l11.14641,-9.79016l0,34.26557l-11.14641,-9.79016l-8.91713,0l0,-14.68525zm28.28959,-6.02095c0.28981,0.12238 7.37892,3.37761 7.37892,13.36357s-7.08912,13.2412 -7.37892,13.36357c-0.13376,0.07343 -0.28981,0.0979 -0.42356,0.0979c-0.44586,0 -0.86942,-0.2937 -1.02547,-0.75874c-0.24522,-0.63636 0.04459,-1.34615 0.60191,-1.5909c0.24522,-0.12238 5.99677,-2.81467 5.99677,-11.11184c0,-8.34611 -5.92989,-11.08736 -5.99677,-11.11184c-0.55732,-0.24475 -0.84713,-0.95454 -0.60191,-1.5909c0.22293,-0.61189 0.86942,-0.93007 1.44903,-0.66084zm2.92036,13.36357c0,6.29018 -4.9713,8.39507 -5.17193,8.49297c-0.13376,0.04895 -0.26751,0.07343 -0.40127,0.07343c-0.44586,0 -0.86942,-0.2937 -1.04776,-0.78321c-0.22293,-0.63636 0.08917,-1.34615 0.64649,-1.5909c0.15605,-0.04895 3.74519,-1.63985 3.74519,-6.19228s-3.58914,-6.14333 -3.74519,-6.19228c-0.55732,-0.24475 -0.84713,-0.95454 -0.64649,-1.5909c0.22293,-0.61189 0.86942,-0.95454 1.44903,-0.70979c0.20064,0.0979 5.17193,2.20279 5.17193,8.49297z" fill="#ffa24c"/>
  </g>
 </g>

</svg>